<?xml version="1.0" encoding="iso-8859-1"?>
<!-- Uploaded to: SVG Repo, www.svgrepo.com, Generator: SVG Repo Mixer Tools -->
<svg version="1.1" id="Capa_1" xmlns="http://www.w3.org/2000/svg" xmlns:xlink="http://www.w3.org/1999/xlink" 
	 viewBox="0 0 512.001 512.001" xml:space="preserve">
<g>
	<rect x="23.273" y="139.641" style="fill:#D4CBF6;" width="93.09" height="232.73"/>
	<rect x="116.36" y="139.641" style="fill:#D4CBF6;" width="93.09" height="232.73"/>
	<rect x="209.46" y="139.641" style="fill:#D4CBF6;" width="93.09" height="232.73"/>
</g>
<g>
	<rect x="256" y="139.641" style="fill:#AB99EC;" width="46.545" height="232.73"/>
	<rect x="302.55" y="139.641" style="fill:#AB99EC;" width="93.09" height="232.73"/>
	<rect x="395.64" y="139.641" style="fill:#AB99EC;" width="93.09" height="232.73"/>
</g>
<g>
	<rect x="108.61" y="139.641" style="fill:#FFFFFF;" width="15.515" height="108.61"/>
	<rect x="201.7" y="139.641" style="fill:#FFFFFF;" width="15.515" height="108.61"/>
	<rect x="294.79" y="139.641" style="fill:#FFFFFF;" width="15.515" height="108.61"/>
	<rect x="387.88" y="139.641" style="fill:#FFFFFF;" width="15.515" height="108.61"/>
</g>
<path style="fill:#5B699C;" d="M488.727,116.365h-85.333h-7.758h-7.758h-77.576h-7.758h-7.758H217.21h-7.758h-7.758h-77.576h-7.758
	h-7.758H23.273C10.42,116.365,0,126.785,0,139.637v232.727c0,12.853,10.42,23.273,23.273,23.273h93.091h93.091h93.091h93.091h93.091
	c12.853,0,23.273-10.42,23.273-23.273V139.637C512,126.785,501.58,116.365,488.727,116.365z M46.545,162.91h38.788v85.333
	c0,6.883,3.005,13.051,7.758,17.31v83.538H46.545V162.91z M139.636,265.554c4.751-4.259,7.758-10.428,7.758-17.31v-85.333h31.03
	v85.333c0,6.883,3.005,13.051,7.758,17.31v83.538h-46.545L139.636,265.554L139.636,265.554z M232.727,265.554
	c4.752-4.259,7.758-10.428,7.758-17.31v-85.333h31.03v85.333c0,6.883,3.007,13.051,7.758,17.31v83.538h-46.545v-83.538H232.727z
	 M325.818,265.554c4.751-4.259,7.758-10.428,7.758-17.31v-85.333h31.03v85.333c0,6.883,3.005,13.051,7.758,17.31v83.538h-46.545
	L325.818,265.554L325.818,265.554z M465.455,349.092H418.91v-83.538c4.752-4.259,7.758-10.428,7.758-17.31v-85.333h38.788
	L465.455,349.092L465.455,349.092z"/>
<path style="fill:#2D4175;" d="M488.727,116.365h-85.333h-7.758h-7.758h-77.576h-7.758h-7.758H256v46.545h15.515v85.333
	c0,6.883,3.007,13.051,7.758,17.31v83.538H256v46.545h46.545h93.091h93.091c12.853,0,23.273-10.42,23.273-23.273V139.637
	C512,126.785,501.58,116.365,488.727,116.365z M372.364,349.092h-46.545v-83.538c4.751-4.259,7.758-10.428,7.758-17.31v-85.333
	h31.03v85.333c0,6.883,3.005,13.051,7.758,17.31v83.538H372.364z M465.455,349.092H418.91v-83.538
	c4.752-4.259,7.758-10.428,7.758-17.31v-85.333h38.788L465.455,349.092L465.455,349.092z"/>
</svg>