<?xml version="1.0" encoding="UTF-8" standalone="no" ?>
<!DOCTYPE svg PUBLIC "-//W3C//DTD SVG 1.1//EN" "http://www.w3.org/Graphics/SVG/1.1/DTD/svg11.dtd">
<svg xmlns="http://www.w3.org/2000/svg" xmlns:xlink="http://www.w3.org/1999/xlink" version="1.1" width="1080" height="1080" viewBox="0 0 1080 1080" xml:space="preserve">
<desc>Created with Fabric.js 5.2.4</desc>
<defs>
</defs>
<g transform="matrix(1 0 0 1 540 540)" id="0d2878b6-ab96-4181-b5ee-0e2ec11da318"  >
<rect style="stroke: none; stroke-width: 1; stroke-dasharray: none; stroke-linecap: butt; stroke-dashoffset: 0; stroke-linejoin: miter; stroke-miterlimit: 4; fill: rgb(255,255,255); fill-rule: nonzero; opacity: 1; visibility: hidden;" vector-effect="non-scaling-stroke"  x="-540" y="-540" rx="0" ry="0" width="1080" height="1080" />
</g>
<g transform="matrix(1 0 0 1 540 540)" id="a15142b1-d56d-490b-a29c-8aa7fe5b1347"  >
</g>
<g transform="matrix(1 0 0 1 100.98 520.67)"  >
<g style="" vector-effect="non-scaling-stroke"   >
		<g transform="matrix(1 0 0 1 -186.18 0)"  >
<rect style="stroke: none; stroke-width: 1; stroke-dasharray: none; stroke-linecap: butt; stroke-dashoffset: 0; stroke-linejoin: miter; stroke-miterlimit: 4; fill: rgb(212,203,246); fill-rule: nonzero; opacity: 1;" vector-effect="non-scaling-stroke"  x="-46.545" y="-116.365" rx="0" ry="0" width="93.09" height="232.73" />
</g>
		<g transform="matrix(1 0 0 1 -93.1 0)"  >
<rect style="stroke: none; stroke-width: 1; stroke-dasharray: none; stroke-linecap: butt; stroke-dashoffset: 0; stroke-linejoin: miter; stroke-miterlimit: 4; fill: rgb(212,203,246); fill-rule: nonzero; opacity: 1;" vector-effect="non-scaling-stroke"  x="-46.545" y="-116.365" rx="0" ry="0" width="93.09" height="232.73" />
</g>
		<g transform="matrix(1 0 0 1 0 0)"  >
<rect style="stroke: none; stroke-width: 1; stroke-dasharray: none; stroke-linecap: butt; stroke-dashoffset: 0; stroke-linejoin: miter; stroke-miterlimit: 4; fill: rgb(212,203,246); fill-rule: nonzero; opacity: 1;" vector-effect="non-scaling-stroke"  x="-46.545" y="-116.365" rx="0" ry="0" width="93.09" height="232.73" />
</g>
		<g transform="matrix(1 0 0 1 23.27 0)"  >
<rect style="stroke: none; stroke-width: 1; stroke-dasharray: none; stroke-linecap: butt; stroke-dashoffset: 0; stroke-linejoin: miter; stroke-miterlimit: 4; fill: rgb(171,153,236); fill-rule: nonzero; opacity: 1;" vector-effect="non-scaling-stroke"  x="-23.2725" y="-116.365" rx="0" ry="0" width="46.545" height="232.73" />
</g>
		<g transform="matrix(1 0 0 1 93.09 0)"  >
<rect style="stroke: none; stroke-width: 1; stroke-dasharray: none; stroke-linecap: butt; stroke-dashoffset: 0; stroke-linejoin: miter; stroke-miterlimit: 4; fill: rgb(171,153,236); fill-rule: nonzero; opacity: 1;" vector-effect="non-scaling-stroke"  x="-46.545" y="-116.365" rx="0" ry="0" width="93.09" height="232.73" />
</g>
		<g transform="matrix(1 0 0 1 186.18 0)"  >
<rect style="stroke: none; stroke-width: 1; stroke-dasharray: none; stroke-linecap: butt; stroke-dashoffset: 0; stroke-linejoin: miter; stroke-miterlimit: 4; fill: rgb(171,153,236); fill-rule: nonzero; opacity: 1;" vector-effect="non-scaling-stroke"  x="-46.545" y="-116.365" rx="0" ry="0" width="93.09" height="232.73" />
</g>
		<g transform="matrix(1 0 0 1 -139.63 -62.05)"  >
<rect style="stroke: none; stroke-width: 1; stroke-dasharray: none; stroke-linecap: butt; stroke-dashoffset: 0; stroke-linejoin: miter; stroke-miterlimit: 4; fill: rgb(255,255,255); fill-rule: nonzero; opacity: 1;" vector-effect="non-scaling-stroke"  x="-7.7575" y="-54.305" rx="0" ry="0" width="15.515" height="108.61" />
</g>
		<g transform="matrix(1 0 0 1 -46.54 -62.05)"  >
<rect style="stroke: none; stroke-width: 1; stroke-dasharray: none; stroke-linecap: butt; stroke-dashoffset: 0; stroke-linejoin: miter; stroke-miterlimit: 4; fill: rgb(255,255,255); fill-rule: nonzero; opacity: 1;" vector-effect="non-scaling-stroke"  x="-7.7575" y="-54.305" rx="0" ry="0" width="15.515" height="108.61" />
</g>
		<g transform="matrix(1 0 0 1 46.55 -62.05)"  >
<rect style="stroke: none; stroke-width: 1; stroke-dasharray: none; stroke-linecap: butt; stroke-dashoffset: 0; stroke-linejoin: miter; stroke-miterlimit: 4; fill: rgb(255,255,255); fill-rule: nonzero; opacity: 1;" vector-effect="non-scaling-stroke"  x="-7.7575" y="-54.305" rx="0" ry="0" width="15.515" height="108.61" />
</g>
		<g transform="matrix(1 0 0 1 139.64 -62.05)"  >
<rect style="stroke: none; stroke-width: 1; stroke-dasharray: none; stroke-linecap: butt; stroke-dashoffset: 0; stroke-linejoin: miter; stroke-miterlimit: 4; fill: rgb(255,255,255); fill-rule: nonzero; opacity: 1;" vector-effect="non-scaling-stroke"  x="-7.7575" y="-54.305" rx="0" ry="0" width="15.515" height="108.61" />
</g>
		<g transform="matrix(1 0 0 1 0 0)"  >
<path style="stroke: none; stroke-width: 1; stroke-dasharray: none; stroke-linecap: butt; stroke-dashoffset: 0; stroke-linejoin: miter; stroke-miterlimit: 4; fill: rgb(91,105,156); fill-rule: nonzero; opacity: 1;" vector-effect="non-scaling-stroke"  transform=" translate(-256, -256)" d="M 488.727 116.365 L 403.394 116.365 L 395.636 116.365 L 387.87800000000004 116.365 L 310.302 116.365 L 302.54400000000004 116.365 L 294.78600000000006 116.365 L 217.21 116.365 L 209.452 116.365 L 201.694 116.365 L 124.118 116.365 L 116.36 116.365 L 108.602 116.365 L 23.273 116.365 C 10.42 116.365 0 126.785 0 139.637 L 0 372.36400000000003 C 0 385.21700000000004 10.42 395.63700000000006 23.273 395.63700000000006 L 116.36399999999999 395.63700000000006 L 209.45499999999998 395.63700000000006 L 302.546 395.63700000000006 L 395.637 395.63700000000006 L 488.728 395.63700000000006 C 501.581 395.63700000000006 512.001 385.21700000000004 512.001 372.36400000000003 L 512.001 139.637 C 512 126.785 501.58 116.365 488.727 116.365 z M 46.545 162.91 L 85.333 162.91 L 85.333 248.243 C 85.333 255.126 88.338 261.294 93.091 265.553 L 93.091 349.091 L 46.545 349.091 L 46.545 162.91 z M 139.636 265.554 C 144.387 261.29499999999996 147.394 255.12599999999998 147.394 248.24399999999997 L 147.394 162.91099999999997 L 178.424 162.91099999999997 L 178.424 248.24399999999997 C 178.424 255.12699999999998 181.429 261.29499999999996 186.18200000000002 265.554 L 186.18200000000002 349.092 L 139.637 349.092 L 139.636 265.554 L 139.636 265.554 z M 232.727 265.554 C 237.479 261.29499999999996 240.485 255.12599999999998 240.485 248.24399999999997 L 240.485 162.91099999999997 L 271.515 162.91099999999997 L 271.515 248.24399999999997 C 271.515 255.12699999999998 274.522 261.29499999999996 279.27299999999997 265.554 L 279.27299999999997 349.092 L 232.72799999999995 349.092 L 232.72799999999995 265.554 L 232.727 265.554 z M 325.818 265.554 C 330.56899999999996 261.29499999999996 333.57599999999996 255.12599999999998 333.57599999999996 248.24399999999997 L 333.57599999999996 162.91099999999997 L 364.606 162.91099999999997 L 364.606 248.24399999999997 C 364.606 255.12699999999998 367.611 261.29499999999996 372.364 265.554 L 372.364 349.092 L 325.81899999999996 349.092 L 325.818 265.554 L 325.818 265.554 z M 465.455 349.092 L 418.91 349.092 L 418.91 265.554 C 423.66200000000003 261.29499999999996 426.668 255.12599999999998 426.668 248.24399999999997 L 426.668 162.91099999999997 L 465.456 162.91099999999997 L 465.455 349.092 L 465.455 349.092 z" stroke-linecap="round" />
</g>
		<g transform="matrix(1 0 0 1 128 0)"  >
<path style="stroke: none; stroke-width: 1; stroke-dasharray: none; stroke-linecap: butt; stroke-dashoffset: 0; stroke-linejoin: miter; stroke-miterlimit: 4; fill: rgb(45,65,117); fill-rule: nonzero; opacity: 1;" vector-effect="non-scaling-stroke"  transform=" translate(-384, -256)" d="M 488.727 116.365 L 403.394 116.365 L 395.636 116.365 L 387.87800000000004 116.365 L 310.302 116.365 L 302.54400000000004 116.365 L 294.78600000000006 116.365 L 256 116.365 L 256 162.91 L 271.515 162.91 L 271.515 248.243 C 271.515 255.126 274.522 261.294 279.27299999999997 265.553 L 279.27299999999997 349.091 L 256 349.091 L 256 395.636 L 302.545 395.636 L 395.636 395.636 L 488.72700000000003 395.636 C 501.58000000000004 395.636 512 385.216 512 372.363 L 512 139.637 C 512 126.785 501.58 116.365 488.727 116.365 z M 372.364 349.092 L 325.81899999999996 349.092 L 325.81899999999996 265.554 C 330.56999999999994 261.29499999999996 333.57699999999994 255.12599999999998 333.57699999999994 248.24399999999997 L 333.57699999999994 162.91099999999997 L 364.60699999999997 162.91099999999997 L 364.60699999999997 248.24399999999997 C 364.60699999999997 255.12699999999998 367.61199999999997 261.29499999999996 372.36499999999995 265.554 L 372.36499999999995 349.092 L 372.364 349.092 z M 465.455 349.092 L 418.91 349.092 L 418.91 265.554 C 423.66200000000003 261.29499999999996 426.668 255.12599999999998 426.668 248.24399999999997 L 426.668 162.91099999999997 L 465.456 162.91099999999997 L 465.455 349.092 L 465.455 349.092 z" stroke-linecap="round" />
</g>
</g>
</g>
<g transform="matrix(1 0 0 1 789.25 540)" style="" id="4631e656-75b0-4dec-aa9d-64f35c1b21e7"  >
		<text xml:space="preserve" font-family="Raleway" font-size="105" font-style="normal" font-weight="900" style="stroke: none; stroke-width: 1; stroke-dasharray: none; stroke-linecap: butt; stroke-dashoffset: 0; stroke-linejoin: miter; stroke-miterlimit: 4; fill: rgb(255,255,255); fill-rule: nonzero; opacity: 1; white-space: pre;" ><tspan x="-355.53" y="32.98" >PianoListener</tspan></text>
</g>
</svg>